PathFileType	4	(X/Y/Z)	RBDS013\RBDS013runT25.trc
DataRate	CameraRate	NumFrames	NumMarkers	Units	OrigDataRate	OrigDataStartFrame	OrigNumFrames
150.000000	150.000000	6	33	mm	150.000000	1125	4500
Frame#	Time	L.ASIS			L.Heel.Bottom			L.Heel.Lateral			L.Heel.Top			L.Iliac.Crest			L.MT1			L.MT5			L.PSIS			L.Shank.Bottom.Lateral			L.Shank.Bottom.Medial			L.Shank.Top.Lateral			L.Shank.Top.Medial			L.Thigh.Bottom.Lateral			L.Thigh.Bottom.Medial			L.Thigh.Top.Lateral			L.Thigh.Top.Medial			R.ASIS			R.ASY			R.Heel.Bottom			R.Heel.Lateral			R.Heel.Top			R.Iliac.Crest			R.MT1			R.MT5			R.PSIS			R.Shank.Bottom.Lateral			R.Shank.Bottom.Medial			R.Shank.Top.Lateral			R.Shank.Top.Medial			R.Thigh.Bottom.Lateral			R.Thigh.Bottom.Medial			R.Thigh.Top.Lateral			R.Thigh.Top.Medial			
		X1	Y1	Z1	X2	Y2	Z2	X3	Y3	Z3	X4	Y4	Z4	X5	Y5	Z5	X6	Y6	Z6	X7	Y7	Z7	X8	Y8	Z8	X9	Y9	Z9	X10	Y10	Z10	X11	Y11	Z11	X12	Y12	Z12	X13	Y13	Z13	X14	Y14	Z14	X15	Y15	Z15	X16	Y16	Z16	X17	Y17	Z17	X18	Y18	Z18	X19	Y19	Z19	X20	Y20	Z20	X21	Y21	Z21	X22	Y22	Z22	X23	Y23	Z23	X24	Y24	Z24	X25	Y25	Z25	X26	Y26	Z26	X27	Y27	Z27	X28	Y28	Z28	X29	Y29	Z29	X30	Y30	Z30	X31	Y31	Z31	X32	Y32	Z32	X33	Y33	Z33	

1126	7.500000000000001	2240.663432962398	954.9989361239391	888.6000939581518	2254.944600900101	63.76863938184546	972.4200054983659	2273.980518157956	84.77478242338117	926.7279882044216	2255.782166379287	110.6891329063476	965.243655749205	2190.059489454275	1038.954085958371	853.9608194109985	2458.185530486548	121.4009738090371	991.807067614707	2430.156568000447	85.80259925706831	890.8803105457768	2089.187050837483	1019.746739874296	948.4881544116739	2294.826578025035	210.3191611358044	901.1902489298742	2257.976559988621	210.0519219537658	942.6062219664966	2277.890552727468	287.6322367202139	887.0832946936598	2242.050791984367	288.1952423541154	927.5954221154419	2291.863789576455	622.7384289815136	854.4987182064565	2225.596151525598	601.0527949527831	876.2672403468544	2249.194533980494	721.7774832769335	832.2801213928797	2186.456403471965	701.8396097885412	852.7390459323155	2242.745222349562	952.9381712732957	1118.538058878101	1754.5617034675	206.9933847489659	1067.331127969232	1620.699641685388	336.3485885039356	1025.361934507926	1642.588260901095	327.2475074563261	1070.174160337644	1668.142261777677	353.9252791938462	1033.249955586345	2213.572907974683	1028.806545772661	1145.059116275053	1741.761013341525	165.9320872932959	1018.132290514781	1701.892528081387	187.0806067390558	1116.968752358768	2088.765541547198	1024.0567590734	1049.075823143407	1746.901272534685	359.492184021443	1097.580250145165	1732.372616955011	387.1038585236915	1056.868013442375	1806.605985680228	418.0834760339615	1113.413003115278	1787.519992960284	444.5968557157148	1071.054089221765	2069.999003097118	654.5499238080205	1154.653413955837	2014.993016174414	671.17438228769	1107.838526636671	2089.579331632717	761.8200546059322	1164.318282590187	2038.669098538823	777.8962131167987	1119.259042554477	
1127	7.506666666666667	2241.23302498542	953.091012904446	888.373486902845	2268.022006587366	57.74891781144158	972.999461498984	2286.542884739938	78.86711231807948	927.1421069043882	2266.974441087901	104.6311917010713	965.1777351044791	2190.550306011193	1035.833612320485	853.3795745193042	2468.924556364199	123.9691573867824	992.6903409634702	2442.932248627769	85.45655732090292	892.1075694164269	2089.415953039913	1017.291753268191	947.8487191819207	2302.48081476504	206.3293167736444	900.952949669185	2265.37758363946	204.8343429506942	942.1801373074294	2282.829212267976	282.9967859788175	886.6533175280102	2246.619256373562	282.4044035571989	926.9231662882056	2289.122954995311	618.7719226888264	853.6390293638136	2222.684473168094	598.2181886578101	876.1386717632446	2247.861639164072	718.4429043325576	831.5696014591001	2184.979455313421	699.5829418654779	852.7093235829726	2243.487262349364	952.0059692736202	1118.63245011862	1742.962804682734	219.2048611377215	1067.177532163482	1615.136383356011	354.3794925006544	1024.992812772557	1636.462249964162	344.3784535031167	1069.800612688535	1663.350951861801	369.7382566088594	1032.89964400146	2212.642306176636	1028.046532032276	1144.88161576367	1728.384648928679	178.7656676625666	1018.00464259	1689.36816679358	201.7207259065142	1116.851920294154	2089.401639225984	1022.156077090734	1048.276575212183	1742.336981214359	371.0627143010935	1097.476673584121	1729.153538856398	399.4822048184104	1056.811969097687	1804.91766895014	426.5782921118005	1113.277462299713	1787.175291744713	454.0820992683217	1070.957778486087	2073.905477627641	651.6046651545097	1154.654492385192	2018.52000855969	667.7295280348295	1108.102945162845	2092.378301893494	759.0098950638045	1164.279782005807	2041.096005905766	774.6485367932556	1119.484160346251	
1128	7.513333333333334	2241.816516513735	950.8640798410329	888.1150968811997	2278.077070777142	52.44362193131288	973.5407496800663	2296.180042988046	73.56111302794326	927.5223669714129	2275.577227483214	99.23778338730651	965.146069053472	2190.953675623028	1032.304374733757	852.8058275793923	2476.953979595256	125.2710835522437	993.2398461445633	2452.56123650594	84.37996588756079	893.0167951229688	2089.527605122141	1014.225619912292	947.2670517626813	2308.181281621657	202.42035516085	900.7056138593192	2270.918881199479	199.9154884561725	941.8282781970062	2286.38432757927	278.5398046569885	886.3041859682945	2249.926283818033	276.9980483115707	926.4252513833445	2287.027751544104	614.854812627451	853.0736438247126	2220.428920011022	595.2642465772595	876.0629169361257	2247.039002976938	715.0827949172763	831.150910864479	2184.027617159053	697.1520493029383	852.7606286466242	2244.282659628281	950.490743991369	1118.727559445235	1732.453512608708	231.6692278693387	1067.023613100345	1611.07683328238	372.6663258995294	1024.854039319446	1631.841129097604	361.7318673502092	1069.623612529456	1659.984957630948	385.673163305684	1032.705277082891	2211.591086332341	1026.64099216471	1144.768595123477	1715.977384475682	191.9477163111937	1017.921998091502	1678.07167282817	216.7516526767933	1116.817716444272	2090.04492629083	1019.493322470776	1047.540499011263	1739.043044100573	382.494944939044	1097.470705608247	1727.172047657725	411.7455269386221	1056.941744088388	1804.355017768451	434.7495736262456	1113.253343408046	1787.959175680946	463.2442876344815	1071.047304890665	2077.968986454156	648.0142020497931	1154.601792689599	2022.286370408201	663.581291646103	1108.209243953965	2095.279403443978	755.5474748023543	1164.163410609164	2043.67507302004	770.7038018267788	1119.574223262935	
1129	7.52	2242.405645349606	948.3301967796519	887.8070687566736	2284.925122112335	47.72781355202234	974.0413181537489	2302.717258143529	68.76902487775105	927.8818829533932	2281.455286568213	94.41678492616872	965.1978844450605	2191.236371911105	1028.452504144647	852.2524221066337	2482.276216803067	124.9741926066339	993.4823780372842	2458.941879825198	82.37009942553546	893.5901043914618	2089.549200456549	1010.566855611458	946.7682058390261	2311.892563431113	198.4477686090094	900.4883710486456	2274.55728527894	195.1866888945016	941.5891637595068	2288.563411882867	274.1640084172585	886.0584635833816	2251.974439403409	271.9148495809808	926.1266111964613	2285.620040031232	610.9656200045047	852.7976500265494	2218.871445545989	592.1430767087296	876.041070957787	2246.721170644709	711.6626415406787	831.012015172117	2183.593620513917	694.4837081747368	852.8810421888643	2245.127147221951	948.3839779853095	1118.801742970442	1723.141067476759	244.3170901246864	1066.883798139128	1608.601552021289	391.0599246377151	1024.939466146994	1628.799030644656	379.1593505510581	1069.648606641111	1658.103588067887	401.6020282412295	1032.673612953645	2210.504897347702	1024.556771107491	1144.711793067484	1704.680647284943	205.4241516782944	1017.887575873604	1668.12191829171	232.0754305065868	1116.863906958392	2090.683615249473	1016.065482152278	1046.908485612821	1737.062259266712	393.7165259315815	1097.562774260647	1726.47828453642	423.8142556161204	1057.259356448771	1804.941550996747	442.5398117423802	1113.348130770436	1789.895818622929	472.0212147862051	1071.329018627042	2082.153970663651	643.8073494667457	1154.500164229421	2026.265334707909	658.7600309307837	1108.150413589341	2098.258725958899	751.4607070301893	1163.97372124369	2046.392277807874	766.0893933725456	1119.528402259343	
1130	7.526666666666667	2242.990123715705	945.4846211820333	887.4406238266807	2288.477003096051	43.51594170501675	974.5040966580058	2306.075962505399	64.44286531798163	928.2418772474962	2284.549324212376	90.10872730116827	965.3838004237607	2191.375962890079	1024.344482039728	851.729872391661	2484.93790669142	122.8672752091812	993.4833179161217	2462.057728010717	79.32834303100549	893.8426550344842	2089.512277313291	1006.336846645949	946.3681940618999	2313.651155355647	194.3067819496862	900.3488251460253	2276.303847573231	190.5757036423565	941.4871507987631	2289.434060392443	269.7945055326571	885.9359171517401	2252.807336259274	267.1130650401014	926.0274137863054	2284.92017314936	607.0705030061429	852.7720420916983	2218.036286356773	588.8003306858519	876.0613003224322	2246.879070661749	708.1334178198474	831.1041155065667	2183.6503541923	691.504648977821	853.0397746811309	2246.012485196829	945.6821061350772	1118.836621392218	1715.106597141802	257.0668671774912	1066.769477338193	1607.750598582644	409.3935758766572	1025.233834961768	1627.368239636545	396.4967972919239	1069.874195107428	1657.728455161747	417.3845919983988	1032.806641215925	2209.473539537479	1021.769555205603	1144.700396223541	1694.613482476188	219.1271967471571	1017.897989148338	1659.605740168822	247.5742724705618	1116.98321658573	2091.295944092608	1011.882413488239	1046.412930047522	1736.401020767112	404.660004647985	1097.750878101605	1727.093266802764	435.6064920373606	1057.754720951275	1806.669040569989	449.898150800191	1113.56147840497	1792.982753219958	480.3539142070268	1071.795701254398	2086.439165698664	639.0112453815747	1154.362566755661	2030.435718358961	653.2935942729057	1107.937721185561	2101.299199555624	746.7785328564117	1163.724840726079	2049.234041571864	760.8322133031623	1119.360746208786	
1131	7.533333333333334	2243.556241341191	942.3081382475987	887.0165260926005	2288.746138510106	39.76513044711798	974.9411788172678	2306.27812897995	60.57523077399129	928.6327044106027	2284.877655687585	86.28848164917278	965.7536674599919	2191.366586333021	1020.022419879674	851.2456502616707	2485.026057950287	118.8897694600494	993.3398180103292	2461.979271691234	75.27558984729227	893.8221747737597	2089.447348893451	1001.560128989959	946.0737548048143	2313.559993784208	189.9456415157145	900.3408061225458	2276.221624519861	186.057592294582	941.5337816446024	2289.116850977965	265.3901628093004	885.954420525352	2252.506192873663	262.5791567024741	926.1065274962696	2284.928916236232	603.1354022782557	852.9317047867366	2217.931873210425	585.1875755591453	876.1016231313246	2247.465151473451	704.444170138913	831.3501523925039	2184.155983050673	688.1451657025162	853.1921688700083	2246.927838417493	942.386120390701	1118.816723447799	1708.408156061628	269.8255881381071	1066.688551623721	1608.527315200655	427.4903323400117	1025.717224200212	1627.544613286758	413.5722633729617	1070.294250712853	1658.849403314927	432.8740288643024	1033.102913168203	2208.585889421145	1018.265150727609	1144.721565802055	1685.872266821147	232.9728818424733	1017.94590505141	1652.581073896258	263.1138514488082	1117.165942060027	2091.853048175908	1006.967053206387	1046.075132927946	1737.035866991857	415.2605949851295	1098.032579709536	1729.011791380569	447.0369380651661	1058.409115404262	1809.502846964157	456.7778163503286	1113.886661980794	1797.193675298538	488.1848914467316	1072.429822686366	2090.813547908029	633.6539319664399	1154.208856448353	2034.7784381459	647.2102425695589	1107.599521392626	2104.387732552394	741.5329936733216	1163.438328908353	2052.185065105164	754.9611516489152	1119.096628840224	
